# xmcd
#
# Track frame offsets:
#	150
#	5050
#	17737
#	33172
#	36122
#	39452
#	48487
#	61320
#	68250
#	72357
#	73620
#	82620
#	90840
#	94947
#	98332
#	108765
#	119142
#	122890
#	130482
#	137172
#	147590
#	156917
#	160000
#	169190
#	171207
#	183570
#	188240
#	197377
#	207512
#	211235
#	215750
#
# Disc length: 2962 seconds
#
# Revision: 0
# Processed by: cddbd v1.5.1PL0 Copyright (c) Steve Scherf et al.
# Submitted via: dBpowerAMP V4.0
#
DISCID=b60b901f
DTITLE=blue sky boys - on radio vol 4
DYEAR=1900
DGENRE=Country
TTITLE0=opening themme and intro
TTITLE1=farther along
TTITLE2=bring back my blue eyed boy to me
TTITLE3=comedy with uncle josh
TTITLE4=soldier's joy
TTITLE5=just one way to the gate
TTITLE6=yellow rose of texas
TTITLE7=advertisement
TTITLE8=fire on the mountain
TTITLE9=request for cards and letters
TTITLE10=heaven holds all to me
TTITLE11=little gal, i trusted you too long
TTITLE12=comedy with uncle josh
TTITLE13=cacklin hen
TTITLE14=on the sunny side of life
TTITLE15=when my blue moon turns to gold
TTITLE16=comedy with uncle josh
TTITLE17=turkey in the straw
TTITLE18=i have found the way
TTITLE19=answer to the prisoner's dream
TTITLE20=advertisement
TTITLE21=devil's dream
TTITLE22=let the lower lights be burning
TTITLE23=request for showdates
TTITLE24=lorena
TTITLE25=comedy with uncle josh
TTITLE26=death is only a dream
TTITLE27=when the roses bloom again
TTITLE28=comedy with unlce josh
TTITLE29=danced all night with a bottle in my hand
TTITLE30=closing theme
EXTD=
EXTT0=
EXTT1=
EXTT2=
EXTT3=
EXTT4=
EXTT5=
EXTT6=
EXTT7=
EXTT8=
EXTT9=
EXTT10=
EXTT11=
EXTT12=
EXTT13=
EXTT14=
EXTT15=
EXTT16=
EXTT17=
EXTT18=
EXTT19=
EXTT20=
EXTT21=
EXTT22=
EXTT23=
EXTT24=
EXTT25=
EXTT26=
EXTT27=
EXTT28=
EXTT29=
EXTT30=
PLAYORDER=
